<svg xmlns="http://www.w3.org/2000/svg" width="1280" height="720" viewBox="0 0 1280 720"><rect width="1280" height="720" fill="#0a0d0f"/><g font-family="Arial, Helvetica, sans-serif"><text x="60" y="58" font-size="22" font-weight="700" fill="#10b981">ADSX / WHOP FIELD GUIDE 05</text><text x="1220" y="58" text-anchor="end" font-size="18" fill="#a9b0b8">ECOMMERCE AND AI</text><text x="60" y="127" font-size="42" fill="#f8fafc" font-weight="700">Whop Economic Intelligence: How to Evaluate Its</text><text x="60" y="179.5" font-size="42" fill="#f8fafc" font-weight="700">Advice</text><rect x="60" y="300" width="365" height="230" rx="12" fill="#141b21" stroke="#34404a"/><rect x="84" y="326" width="44" height="36" rx="6" fill="#10b981"/><text x="106" y="352" text-anchor="middle" font-size="24" font-weight="700" fill="#071014">1</text><text x="84" y="405" font-size="29" fill="#f8fafc" font-weight="700">Review the evidence</text><text x="84" y="477" font-size="21" fill="#bbc4cd" font-weight="400">What supports the idea?</text><path d="M 433 410 h 17 m -7 -7 l 7 7 -7 7" fill="none" stroke="#10b981" stroke-width="3"/><rect x="457" y="300" width="365" height="230" rx="12" fill="#141b21" stroke="#34404a"/><rect x="481" y="326" width="44" height="36" rx="6" fill="#10b981"/><text x="503" y="352" text-anchor="middle" font-size="24" font-weight="700" fill="#071014">2</text><text x="481" y="405" font-size="29" fill="#f8fafc" font-weight="700">Approve a bounded</text><text x="481" y="441.25" font-size="29" fill="#f8fafc" font-weight="700">change</text><text x="481" y="477" font-size="21" fill="#bbc4cd" font-weight="400">Who owns the decision?</text><path d="M 830 410 h 17 m -7 -7 l 7 7 -7 7" fill="none" stroke="#10b981" stroke-width="3"/><rect x="854" y="300" width="365" height="230" rx="12" fill="#141b21" stroke="#34404a"/><rect x="878" y="326" width="44" height="36" rx="6" fill="#10b981"/><text x="900" y="352" text-anchor="middle" font-size="24" font-weight="700" fill="#071014">3</text><text x="878" y="405" font-size="29" fill="#f8fafc" font-weight="700">Measure the result</text><text x="878" y="477" font-size="21" fill="#bbc4cd" font-weight="400">Did the outcome improve?</text><text x="60" y="593" font-size="26" fill="#e5e9ee" font-weight="400">A recommendation is a hypothesis until your business measures it.</text><text x="60" y="689" font-size="17" fill="#9ba6b1">Original AdsX illustration · Workflow examples, not product screenshots</text><text x="1220" y="689" text-anchor="end" font-size="17" fill="#10b981">adsx.com/topics/whop</text></g></svg>